# xmcd
#
# Track frame offsets:
#	150
#	4368
#	21619
#	37540
#	57334
#	75080
#	97181
#	116969
#	136378
#	151259
#	168770
#	187571
#	209037
#
# Disc length: 3001 seconds
#
# Revision: 5
# Processed by: cddbd v1.5.2PL0 Copyright (c) Steve Scherf et al.
# Submitted via: EZCDAudioConverter 7.1.5.1
#
DISCID=a10bb70d
DTITLE=陶喆 - 太平盛世
DYEAR=2005
DGENRE=
TTITLE0=鬼(Overture)
TTITLE1=鬼
TTITLE2=Catherine
TTITLE3=就是爱你
TTITLE4=孙子兵法
TTITLE5=爱我还是他
TTITLE6=Susan说
TTITLE7=无缘
TTITLE8=Sula与Lampa的寓言
TTITLE9=2Night·藏爱
TTITLE10=她的歌
TTITLE11=爱是个什么东西
TTITLE12=祷告良辰歌
EXTD=
EXTT0=
EXTT1=
EXTT2=
EXTT3=
EXTT4=
EXTT5=
EXTT6=
EXTT7=
EXTT8=
EXTT9=
EXTT10=
EXTT11=
EXTT12=
PLAYORDER=
